<?xml version="1.0" encoding="UTF-8" standalone="no"?>
<svg
   xmlns:ooo="http://xml.openoffice.org/svg/export"
   xmlns:dc="http://purl.org/dc/elements/1.1/"
   xmlns:cc="http://creativecommons.org/ns#"
   xmlns:rdf="http://www.w3.org/1999/02/22-rdf-syntax-ns#"
   xmlns:svg="http://www.w3.org/2000/svg"
   xmlns="http://www.w3.org/2000/svg"
   xmlns:sodipodi="http://sodipodi.sourceforge.net/DTD/sodipodi-0.dtd"
   xmlns:inkscape="http://www.inkscape.org/namespaces/inkscape"
   inkscape:version="1.0 (4035a4fb49, 2020-05-01)"
   sodipodi:docname="icon.svg"
   id="svg164"
   xml:space="preserve"
   stroke-linejoin="round"
   stroke-width="28.222"
   fill-rule="evenodd"
   preserveAspectRatio="xMidYMid"
   viewBox="0 0 21000 29700"
   height="297mm"
   width="210mm"
   version="1.2"><metadata
   id="metadata168"><rdf:RDF><cc:Work
       rdf:about=""><dc:format>image/svg+xml</dc:format><dc:type
         rdf:resource="http://purl.org/dc/dcmitype/StillImage" /></cc:Work></rdf:RDF></metadata><sodipodi:namedview
   inkscape:current-layer="svg164"
   inkscape:window-maximized="1"
   inkscape:window-y="42"
   inkscape:window-x="0"
   inkscape:cy="571.64003"
   inkscape:cx="317.53956"
   inkscape:zoom="4.1050505"
   showgrid="false"
   id="namedview166"
   inkscape:window-height="1008"
   inkscape:window-width="1920"
   inkscape:pageshadow="2"
   inkscape:pageopacity="0"
   guidetolerance="10"
   gridtolerance="10"
   objecttolerance="10"
   borderopacity="1"
   bordercolor="#666666"
   pagecolor="#ffffff" />
 <defs
   id="defs8"
   class="ClipPathGroup">
  <clipPath
   clipPathUnits="userSpaceOnUse"
   id="presentation_clip_path">
   <rect
   id="rect2"
   height="29700"
   width="21000"
   y="0"
   x="0" />
  </clipPath>
  <clipPath
   clipPathUnits="userSpaceOnUse"
   id="presentation_clip_path_shrink">
   <rect
   id="rect5"
   height="29641"
   width="20958"
   y="29"
   x="21" />
  </clipPath>
 </defs>
 <defs
   id="defs12"
   class="TextShapeIndex">
  <g
   id="g10"
   ooo:id-list="id3 id4 id5 id6 id7 id8 id9 id10 id11 id12 id13 id14 id15 id16 id17"
   ooo:slide="id1" />
 </defs>
 <defs
   id="defs44"
   class="EmbeddedBulletChars">
  <g
   transform="scale(0.00048828125,-0.00048828125)"
   id="bullet-char-template-57356">
   <path
   id="path14"
   d="M 580,1141 L 1163,571 580,0 -4,571 580,1141 Z" />
  </g>
  <g
   transform="scale(0.00048828125,-0.00048828125)"
   id="bullet-char-template-57354">
   <path
   id="path17"
   d="M 8,1128 L 1137,1128 1137,0 8,0 8,1128 Z" />
  </g>
  <g
   transform="scale(0.00048828125,-0.00048828125)"
   id="bullet-char-template-10146">
   <path
   id="path20"
   d="M 174,0 L 602,739 174,1481 1456,739 174,0 Z M 1358,739 L 309,1346 659,739 1358,739 Z" />
  </g>
  <g
   transform="scale(0.00048828125,-0.00048828125)"
   id="bullet-char-template-10132">
   <path
   id="path23"
   d="M 2015,739 L 1276,0 717,0 1260,543 174,543 174,936 1260,936 717,1481 1274,1481 2015,739 Z" />
  </g>
  <g
   transform="scale(0.00048828125,-0.00048828125)"
   id="bullet-char-template-10007">
   <path
   id="path26"
   d="M 0,-2 C -7,14 -16,27 -25,37 L 356,567 C 262,823 215,952 215,954 215,979 228,992 255,992 264,992 276,990 289,987 310,991 331,999 354,1012 L 381,999 492,748 772,1049 836,1024 860,1049 C 881,1039 901,1025 922,1006 886,937 835,863 770,784 769,783 710,716 594,584 L 774,223 C 774,196 753,168 711,139 L 727,119 C 717,90 699,76 672,76 641,76 570,178 457,381 L 164,-76 C 142,-110 111,-127 72,-127 30,-127 9,-110 8,-76 1,-67 -2,-52 -2,-32 -2,-23 -1,-13 0,-2 Z" />
  </g>
  <g
   transform="scale(0.00048828125,-0.00048828125)"
   id="bullet-char-template-10004">
   <path
   id="path29"
   d="M 285,-33 C 182,-33 111,30 74,156 52,228 41,333 41,471 41,549 55,616 82,672 116,743 169,778 240,778 293,778 328,747 346,684 L 369,508 C 377,444 397,411 428,410 L 1163,1116 C 1174,1127 1196,1133 1229,1133 1271,1133 1292,1118 1292,1087 L 1292,965 C 1292,929 1282,901 1262,881 L 442,47 C 390,-6 338,-33 285,-33 Z" />
  </g>
  <g
   transform="scale(0.00048828125,-0.00048828125)"
   id="bullet-char-template-9679">
   <path
   id="path32"
   d="M 813,0 C 632,0 489,54 383,161 276,268 223,411 223,592 223,773 276,916 383,1023 489,1130 632,1184 813,1184 992,1184 1136,1130 1245,1023 1353,916 1407,772 1407,592 1407,412 1353,268 1245,161 1136,54 992,0 813,0 Z" />
  </g>
  <g
   transform="scale(0.00048828125,-0.00048828125)"
   id="bullet-char-template-8226">
   <path
   id="path35"
   d="M 346,457 C 273,457 209,483 155,535 101,586 74,649 74,723 74,796 101,859 155,911 209,963 273,989 346,989 419,989 480,963 531,910 582,859 608,796 608,723 608,648 583,586 532,535 482,483 420,457 346,457 Z" />
  </g>
  <g
   transform="scale(0.00048828125,-0.00048828125)"
   id="bullet-char-template-8211">
   <path
   id="path38"
   d="M -4,459 L 1135,459 1135,606 -4,606 -4,459 Z" />
  </g>
  <g
   transform="scale(0.00048828125,-0.00048828125)"
   id="bullet-char-template-61548">
   <path
   id="path41"
   d="M 173,740 C 173,903 231,1043 346,1159 462,1274 601,1332 765,1332 928,1332 1067,1274 1183,1159 1299,1043 1357,903 1357,740 1357,577 1299,437 1183,322 1067,206 928,148 765,148 601,148 462,206 346,322 231,437 173,577 173,740 Z" />
  </g>
 </defs>
 <g
   id="g49">
  <g
   class="Master_Slide"
   id="id2">
   <g
   class="Background"
   id="bg-id2" />
   <g
   class="BackgroundObjects"
   id="bo-id2" />
  </g>
 </g>
 
<text
   id="text995"
   y="12202.808"
   x="10000.207"
   style="font-style:normal;font-weight:normal;font-size:1058.33px;line-height:1.25;font-family:sans-serif;letter-spacing:0px;word-spacing:0px;fill:#000000;fill-opacity:1;stroke:none;stroke-width:746.707"
   xml:space="preserve"><tspan
     style="stroke-width:746.707"
     y="12202.808"
     x="10000.207"
     id="tspan993"
     sodipodi:role="line"></tspan></text><text
   transform="scale(1.0225977,0.97790169)"
   id="text999"
   y="17118.65"
   x="8096.397"
   style="font-style:normal;font-weight:normal;font-size:1884.25px;line-height:1.25;font-family:sans-serif;letter-spacing:0px;word-spacing:0px;fill:#ff5555;fill-opacity:1;stroke:none;stroke-width:1329.44"
   xml:space="preserve"><tspan
     style="fill:#ff5555;stroke-width:1329.44"
     y="17118.65"
     x="8096.397"
     id="tspan997"
     sodipodi:role="line">🖀</tspan></text></svg>
